<svg height="1120pt" preserveAspectRatio="xMidYMid meet" viewBox="0 0 1120 1120" width="1120pt" xmlns="http://www.w3.org/2000/svg"><g transform="matrix(.1 0 0 -.1 0 1120)"><path d="m5605 11050c-27-4-66-14-85-22-32-14-597-343-2460-1431-377-220-709-414-737-431-29-17-53-36-53-43s-9-13-20-13c-31 0-82-29-74-42 5-8 2-9-9-5-10 3-17 2-17-3 0-6-3-9-7-8-9 2-93-40-93-46 0-2 8-3 18-1 9 2 25 4 35 4 9 1 17 7 17 15s4 17 10 21c5 3 5-7-1-25-9-23-16-29-29-25-20 6-33-19-34-65-1-15-7-25-16-25-21 0-24 30-4 49 9 9 13 20 10 24-4 3-12 0-17-8-8-11-9-9-4 8 6 22 5 23-14 13-12-7-21-14-21-17s4-3 9 0c10 6 25-24 16-32-3-3-5-1-5 5s-9 13-19 16c-14 3-18 1-14-9 3-8 11-14 19-14 23 0 16-26-11-38-31-14-46-15-25-2 12 8 10 10-10 10-15 0-31 5-36 10-7 7-17 5-30-5-16-12-16-14-2-9 12 4 18 1 18-10 0-9 8-16 19-16 24 0 33-21 15-38-8-7-14-8-14-2 0 5-8 10-17 9-11 0-13-3-5-6 7-3 11-21 10-46-1-37-2-38-5-9-3 18-10 32-18 32-7 0-20 3-29 6s-16 1-16-5 11-11 24-11c21 0 25-5 24-29-1-23-5-27-20-23-10 2-21 8-24 13-7 12-24 11-24-1 0-5 7-10 16-10 11 0 14-6 9-22-4-13-11-27-16-32-5-6-9-21-9-35 0-21-5-26-25-26-19 0-25 5-25 23 0 15-6 22-20 22-13 0-18-5-14-15 4-8 11-12 16-9 6 4 8 1 6-7-3-8-10-13-17-12-6 2-13-8-17-22-3-14-10-25-14-25s-10-6-13-14c-4-10 0-12 14-9 14 4 18 1 13-10-9-23-35-29-54-12-9 8-20 12-23 8-13-12-7-22 8-17 13 5 14 2 5-21-6-15-8-30-5-35s1-11-3-14c-5-3-7-18-4-32 3-19 1-25-7-20-6 4-11 18-11 32 0 15-6 24-16 24-8 0-13 4-9 9 3 5 1 12-5 16-5 3-10-1-10-9s5-18 10-21c8-5 8-11 0-20s-8-14 0-17c17-5 1-35-23-42-11-3-28 0-36 7-12 10-14 9-8-5 4-10 2-18-4-18-7 0-6-9 3-22 8-13 14-40 13-60-1-31 2-38 17-38 11 0 26-7 34-15 10-9 24-13 40-9 15 4 24 2 24-6 0-7-6-10-14-7-7 3-18 1-23-4-7-7-16-5-26 5-20 20-36 20-57 1-18-16-94-23-123-10-24 10-35-2-39-44-2-27 1-35 19-42 26-9 40 5 24 25-14 17 21 47 40 35 11-7 11-9-2-9-11 0-16-9-16-30 0-24 3-27 14-19 9 8 13 8 13 1 0-6-4-13-9-16s-7-15-4-26c4-14 14-20 33-20 31 0 41 21 35 70-3 18 1 30 11 34 8 3 14 14 12 23-2 11 3 18 12 18 8 0 14-6 12-14-1-7 4-24 13-37 21-33 19-38-7-14l-22 21-9-23c-6-17-4-26 9-35 10-7 12-13 6-13-7 0-12-5-12-10 0-6-12-22-28-36-21-20-28-23-30-11-2 8-12 17-23 20s-23 15-26 26c-3 12-9 21-14 21-17 0-9-37 11-55 11-10 18-20 15-23-7-7-55 41-55 56 0 6-4 12-10 12-5 0-10-11-10-25 0-18 5-25 20-25 11 0 20-4 20-10 0-5-5-10-11-10-7 0-9-10-5-25 7-27-9-69-23-60-5 2-14-2-21-10-10-12-9-15 6-15 11 0 28 7 38 15 14 11 22 12 27 4 4-7 10-3 14 12 4 13 13 28 19 32s-1 5-17 1c-21-5-27-3-27 10 0 20 33 21 50 1 7-8 10-24 7-35-6-22 18-49 26-28 2 7 0 23-4 35-6 17-5 21 6 16 18-6 20-54 3-71-7-7-8-12-2-12 5 0 10-8 10-18 0-14-6-17-22-14-13 2-21 9-18 17 4 9-3 11-22 7-25-4-26-3-13 10 8 9 17 14 22 11 4-2 7 1 7 6 0 14-17 14-25 1-5-8-11-8-20 0-10 8-13 6-11-7 0-10-6-19-14-19-8-1-19-2-25-3-5 0-11-13-11-27-2-25-1-25 18-7 19 17 21 17 40-7 15-18 21-21 28-11 11 19 30 4 27-20-4-26-27-49-27-27 0 24-21 34-34 17-14-18-58-22-68-6-5 9-12 8-25-5-9-10-13-21-9-25s11-2 15 5c5 9 15 10 32 4 13-5 33-6 44-1 36 14 38 9 9-18l-29-26 30 6c17 3 24 4 18 1-7-3-13-12-13-20 0-13-12-18-32-15-5 0-8-4-8-9 0-6 9-10 21-10s18-4 13-11c-3-6-1-14 5-18 13-8 1-54-25-103-11-20-12-28-3-28 8 0 8-4-1-15-7-8-19-15-27-15s-13-6-10-12c2-7 12-12 21-12 20 2 20-3 0-41-8-16-13-38-10-48 6-25-3-47-20-47-8 0-14-10-14-24 0-19 14-32 67-64 186-108 1571-920 1863-1092 948-559 2240-1305 2279-1317 60-18 180-16 236 3 46 15 500 278 3314 1919 1056 616 1486 872 1517 903 159 158 146 435-28 574-24 19-171 109-328 200s-681 396-1165 678-1125 655-1425 830c-300 174-833 485-1185 690-352 206-660 381-685 390-58 22-131 30-195 20zm300-970c178-105 1199-702 3033-1775 336-197 612-361 612-364-1-3-875-516-1943-1139l-1943-1132-811 472c-446 260-1324 770-1952 1133-627 363-1141 663-1141 666 0 4 37 28 83 54 45 26 107 62 137 80 30 17 303 176 605 352 623 362 2143 1247 2704 1574 328 192 376 217 395 207 11-6 111-64 221-128zm-3645-991c0-5-8-9-17-7-10 1-24-1-30-5-7-5-13-4-13 2 0 5 6 12 13 14 22 9 47 7 47-4zm-94-56c-4-9-1-20 6-25 10-7 9-9-2-5-18 4-27 47-10 47 7 0 9-7 6-17zm-144-248c3-14 1-25-3-25-5 0-9 11-9 25s2 25 4 25 6-11 8-25zm-132-55c0-5-4-10-10-10-5 0-10 5-10 10 0 6 5 10 10 10 6 0 10-4 10-10zm-83-266c-3-3-12-4-19-1-8 3-5 6 6 6 11 1 17-2 13-5zm-77-54c5 0 6-8 3-17-5-12-2-15 10-10 23 9 21-5-2-23-16-11-18-18-10-33 13-24 6-32-11-12-10 12-10 21-1 41 9 22 8 28-13 49-13 13-22 26-19 29s12-1 20-9 18-15 23-15zm27 24c-3-3-12-4-19-1-8 3-5 6 6 6 11 1 17-2 13-5zm-54-54c-6-22-33-49-33-32 0 6 4 13 10 17 5 3 7 12 3 20-3 9 1 15 10 15 10 0 13-7 10-20zm-95-20c7-11 23-20 37-20 18 0 25-5 25-19 0-11-6-21-12-24-10-3-10-8 1-21 14-16 12-17-19-14-18 2-35 9-36 16s0 8 3 2c2-5 12-10 21-9 11 0 12 2 5 6-7 2-13 11-13 19s6 14 13 14c6 1 1 10-12 21-14 11-31 17-42 14-14-5-16-1-12 15 7 26 25 26 41 0zm56 5c-7-17-7-17-28-9-24 9-19 24 9 24 18 0 23-4 19-15zm40-41c9-24 7-27-9-10-17 17-19 26-6 26 5 0 12-7 15-16zm-99-14c-3-5-15-10-26-10-10 0-19 5-19 10 0 6 12 10 26 10s23-4 19-10zm-95-114c0-3-4-8-10-11-5-3-10-1-10 4 0 6 5 11 10 11 6 0 10-2 10-4zm20-56c0-5-4-10-10-10-5 0-10-7-10-15s-7-15-16-15c-15 0-13 10 9 38 11 14 27 16 27 2zm55-10c3-5-1-10-9-10-9 0-16 5-16 10 0 6 4 10 9 10 6 0 13-4 16-10zm-15-79c0-21-13-41-27-41-10 0-13 6-9 16 3 9 6 20 6 25s7 9 15 9 15-4 15-9zm-10-92c0-5-4-9-10-9-5 0-10 7-10 16 0 8 5 12 10 9 6-3 10-10 10-16zm-100-100c0-14-17-10-23 5-4 10-1 13 9 9 7-3 14-9 14-14z"/><path d="m1975 8924c9-9 19-13 23-10 3 4 0 11-8 16-24 15-33 11-15-6z"/><path d="m1806 8865c-17-13-17-15-3-21 24-9 21-22-5-27-22-4-22-4-2-6 29-1 46 21 37 47-7 18-10 19-27 7z"/><path d="m1870 8870c0-5 7-10 15-10s15 5 15 10c0 6-7 10-15 10s-15-4-15-10z"/><path d="m1733 8803c-7-2-13-13-13-23 0-9-7-23-15-30-17-14-20-36-6-44 5-4 7 2 4 12-2 10 3 24 12 32 14 12 16 11 12-11-2-13-2-18 0-11 5 15 9 15 35 1 18-10 20-9 15 6-4 9-7 19-7 21s-9 4-20 4-20 5-20 10c0 13 6 13 31 0 22-12 24-7 9 21-11 19-16 21-37 12z"/><path d="m1791 8784c0-11 3-14 6-6 3 7 2 16-1 19-3 4-6-2-5-13z"/><path d="m1790 8740c0-5 5-10 11-10 5 0 7 5 4 10-3 6-8 10-11 10-2 0-4-4-4-10z"/><path d="m1634 8694c-18-15-18-15 4-9 16 5 22 2 22-9 0-9-7-16-15-16-26 0-16-17 13-23 33-6 39-2 22 18-7 8-10 24-7 35 6 24-11 26-39 4z"/><path d="m1596 8630c-12-4-16-9-9-13 6-4 21-3 34 1 16 6 18 10 8 14-8 3-23 2-33-2z"/><path d="m1613 8573c0-13-6-30-12-36-8-8-11-6-11 9 0 16-2 17-11 4-8-11-12-12-16-2-5 14-23 16-23 3 0-5 10-13 21-16 15-5 18-9 9-15-7-4-8-10-3-13 12-8 53 29 53 48 0 7 4 15 9 17s3 8-4 15c-10 9-12 6-12-14z"/><path d="m1620 8520c0-5 7-10 16-10 8 0 12 5 9 10-3 6-10 10-16 10-5 0-9-4-9-10z"/><path d="m1545 8470c3-5 8-10 11-10 2 0 4 5 4 10 0 6-5 10-11 10-5 0-7-4-4-10z"/><path d="m1445 8440c3-5 8-10 11-10 2 0 4 5 4 10 0 6-5 10-11 10-5 0-7-4-4-10z"/><path d="m1365 8350c-3-5-1-10 4-10 6 0 11 5 11 10 0 6-2 10-4 10-3 0-8-4-11-10z"/><path d="m1480 8336c0-19 4-23 20-19 25 7 26 23 3 23-15 0-16 2-3 10s12 10-2 10c-12 0-18-8-18-24z"/><path d="m1509 8298c-7-55-6-78 2-78 5 0 9 6 9 13 0 8 4 7 10-3 5-8 10-10 10-5 0 6-4 17-10 25-6 9-5 17 2 21 13 8 3 39-12 39-5 0-11-6-11-12z"/><path d="m1310 7939c0-5 5-7 10-4 6 3 10 8 10 11 0 2-4 4-10 4-5 0-10-5-10-11z"/><path d="m1400 7910c0-5 5-10 10-10 6 0 10 5 10 10 0 6-4 10-10 10-5 0-10-4-10-10z"/><path d="m1240 7889c0-5 5-7 10-4 6 3 10 8 10 11 0 2-4 4-10 4-5 0-10-5-10-11z"/><path d="m1240 7840c0-5 5-10 10-10 6 0 10 5 10 10 0 6-4 10-10 10-5 0-10-4-10-10z"/><path d="m1375 7820c-4-6 5-10 19-10s26 5 26 10c0 6-9 10-19 10-11 0-23-4-26-10z"/><path d="m1295 7800c-3-5-1-10 4-10 6 0 11 5 11 10 0 6-2 10-4 10-3 0-8-4-11-10z"/><path d="m1221 7714c0-11 3-14 6-6 3 7 2 16-1 19-3 4-6-2-5-13z"/><path d="m1332 7687c18-19 38-22 38-7 0 6-4 10-9 10s-18 3-28 7c-17 6-17 6-1-10z"/><path d="m1280 7629c0-16 4-28 9-25s9 17 9 31-4 25-9 25-9-14-9-31z"/><path d="m1306 7641c-3-5 2-15 12-22 15-12 16-12 5 2-7 9-10 19-6 22 3 4 4 7 0 7-3 0-8-4-11-9z"/><path d="m1348 7600c-7-24-3-38 8-28 3 4 4 17 2 30l-3 23z"/><path d="m1336 7524c-14-14-22-34-13-34 13 0 46 39 38 44-5 3-17-1-25-10z"/><path d="m1325 7450c-3-5-1-10 4-10 6 0 11 5 11 10 0 6-2 10-4 10-3 0-8-4-11-10z"/><path d="m1340 7406c0-9 5-16 10-16 6 0 10 4 10 9 0 6-4 13-10 16-5 3-10-1-10-9z"/><path d="m1255 7380c-14-15-16-23-7-32 8-8 13-7 18 8 17 52 16 54-11 24z"/><path d="m1315 7370c-3-5-1-10 4-10 6 0 11 5 11 10 0 6-2 10-4 10-3 0-8-4-11-10z"/><path d="m10270 5989c-82-16 86 79-1485-839-445-260-1008-589-1250-730-944-551-1821-1064-1845-1078-25-14-43-5-630 338-1249 729-1867 1090-2260 1320-223 130-529 308-680 395s-419 241-595 343c-364 211-422 240-493 249-55 6-182-14-182-29 0-5-4-6-10-3-6 4-10-9-10-32 0-21-5-45-11-53-8-12-9-12-7 5 1 11-1 26-6 33-4 7-2 20 6 29 12 15 11 15-10 4-12-6-22-18-22-26s-5-15-11-15c-5 0-7 6-3 13 4 6-2 3-14-7-12-11-22-25-22-33 0-19-30-50-30-31-1 8-9 3-20-10-10-13-16-30-13-38 3-9 0-14-8-12-27 6-49-89-46-192 2-81 7-105 30-153 44-88 96-133 292-248 99-59 344-203 545-321s642-376 980-573 1159-675 1825-1063c778-454 1231-712 1268-724 75-23 150-23 224 0 36 12 441 242 1093 622 569 332 1222 712 1450 845s827 481 1330 774c665 387 928 546 963 580 26 25 62 75 80 111 29 59 32 73 32 160-1 75-5 107-23 151-66 166-261 273-432 238zm-9370-38c0-5-7-12-16-15-22-9-24-8-24 9 0 8 9 15 20 15s20-4 20-9zm-126-87c9-8 16-21 16-27 0-7-4-6-10 3-8 12-11 13-19 1-5-7-7-23-5-35 4-18 3-18-4-3-4 10-12 18-17 17-19-3-15 18 5 23 13 3 18 10 14 21-8 20 0 20 20 0zm-64-48c0-2 3-12 7-21 5-15 3-16-15-6-25 13-29 31-7 31 8 0 15-2 15-4z"/><path d="m902 3645c-80-18-135-50-196-114-123-133-140-326-41-477 48-73 88-102 385-274 351-203 2057-1197 3560-2073 481-281 898-519 925-530 63-25 191-27 254-3 23 9 224 121 445 250 220 128 741 431 1156 673s1059 617 1430 833 914 532 1205 702c292 169 551 326 577 348 33 28 59 64 85 117 36 73 38 82 38 172-1 82-5 104-27 154-78 168-258 260-435 223-79-16-56-3-2163-1236-129-76-500-293-825-482-324-190-819-479-1099-642-279-164-513-295-520-293-6 2-159 91-341 197-181 106-637 372-1012 591-907 530-2069 1208-2648 1547-259 152-495 285-525 298-74 29-151 36-228 19z"/></g></svg>